{"title":"Kiss.the.Girls.1997.1080p.BluRay.x264.DTS-FGT","uid":11870229,"size":15124965416,"categoryP":"video","categoryS":"hd___movies","magnet":"?xt=urn:btih:b0b5bbb078bde6085b049c7f108ae23773c57647&amp;dn=Kiss.the.Girls.1997.1080p.BluRay.x264.DTS-FGT&amp;tr=udp%3A%2F%2Ftracker.openbittorrent.com%3A80&amp;tr=udp%3A%2F%2Fopen.demonii.com%3A1337&amp;tr=udp%3A%2F%2Ftracker.coppersurfer.tk%3A6969&amp;tr=udp%3A%2F%2Fexodus.desync.com%3A6969","seeders":1,"leechers":2,"uploader":"vickey1992","files":2,"time":1430405372,"description":"Video\nID                                       : 1\nFormat                                   : AVC\nFormat/Info                              : Advanced Video Codec\nFormat profile                           : &lt;a class=&quot;__cf_email__&quot; href=&quot;/cdn-cgi/l/email-protection&quot; data-cfemail=&quot;4b03222c230b077f657a&quot;&gt;[email&amp;#160;protected]&lt;/a&gt;&lt;script cf-hash='f9e31' type=&quot;text/javascript&quot;&gt;\n/* &lt;![CDATA[ */!function(){try{var t=&quot;currentScript&quot;in document?document.currentScript:function(){for(var t=document.getElementsByTagName(&quot;script&quot;),e=t.length;e--;)if(t[e].getAttribute(&quot;cf-hash&quot;))return t[e]}();if(t&amp;&amp;t.previousSibling){var e,r,n,i,c=t.previousSibling,a=c.getAttribute(&quot;data-cfemail&quot;);if(a){for(e=&quot;&quot;,r=parseInt(a.substr(0,2),16),n=2;a.length-n;n+=2)i=parseInt(a.substr(n,2),16)^r,e+=String.fromCharCode(i);e=document.createTextNode(e),c.parentNode.replaceChild(e,c)}}}catch(u){}}();/* ]]&gt; */&lt;/script&gt;\nFormat settings, CABAC                   : Yes\nFormat settings, ReFrames                : 5 frames\nCodec ID                                 : V_MPEG4/ISO/AVC\nDuration                                 : 1h 55mn\nBit rate                                 : 15.6 Mbps\nWidth                                    : 1 920 pixels\nHeight                                   : 818 pixels\nDisplay aspect ratio                     : 2.35:1\nFrame rate mode                          : Constant\nFrame rate                               : 23.976 fps\nColor space                              : YUV\nChroma subsampling                       : 4:2:0\nBit depth                                : 8 bits\nScan type                                : Progressive\nBits/(Pixel*Frame)                       : 0.414\nStream size                              : 12.6 GiB (89%)\nWriting library                          : x264 core 142 r2431+42 c69a006 tMod [8-bit@4:2:0 X86_64]\nEncoding settings                        : cabac=1 / ref=5 / deblock=1:-2:-2 / analyse=0x3:0x133 / me=umh / subme=11 / psy=1 / fade_compensate=0.00 / psy_rd=1.00:0.00 / mixed_ref=1 / me_range=32 / chroma_me=1 / trellis=2 / 8x8dct=1 / cqm=0 / deadzone=21,11 / fast_pskip=1 / chroma_qp_offset=-2 / threads=12 / lookahead_threads=2 / sliced_threads=0 / nr=0 / decimate=1 / interlaced=0 / bluray_compat=0 / constrained_intra=0 / fgo=0 / bframes=7 / b_pyramid=2 / b_adapt=2 / b_bias=0 / direct=1 / weightb=1 / open_gop=0 / weightp=2 / keyint=250 / keyint_min=23 / scenecut=40 / intra_refresh=0 / rc_lookahead=60 / rc=crf / mbtree=0 / crf=17.0000 / qcomp=0.70 / qpmin=0:0:0 / qpmax=69:69:69 / qpstep=4 / vbv_maxrate=62500 / vbv_bufsize=78125 / crf_max=0.0 / nal_hrd=none / filler=0 / ip_ratio=1.40 / pb_ratio=1.30 / aq=4:0.80 / aq-sensitivity=11.00 / aq-factor=1.00:1.00:1.00 / aq2=1:0.60 / aq2-sensitivity=9.00 / aq2-factor=1.00:1.00:1.00 / aq3=1:[0.60:0.60]:[0.60:0.60]:[0.60:0.60]:[0.60:0.60] / aq3-sensitivity=10.00 / aq3-factor=[1.00:1.00]:[1.00:1.00]:[1.00:1.00] / aq3-boundary=192:64:24\nLanguage                                 : English\nDefault                                  : Yes\nForced                                   : No\nColor primaries                          : BT.709\nTransfer characteristics                 : BT.709\nMatrix coefficients                      : BT.709\nColor range                              : Limited\n\nAudio\nID                                       : 2\nFormat                                   : DTS\nFormat/Info                              : Digital Theater Systems\nMode                                     : 16\nFormat settings, Endianness              : Big\nCodec ID                                 : A_DTS\nDuration                                 : 1h 55mn\nBit rate mode                            : Constant\nBit rate                                 : 1 509 Kbps\nChannel(s)                               : 6 channels\nChannel positions                        : Front: L C R, Side: L R, LFE\nSampling rate                            : 48.0 KHz\nBit depth                                : 24 bits\nCompression mode                         : Lossy\nStream size                              : 1.22 GiB (9%)\nLanguage                                 : English\nDefault                                  : Yes\nForced                                   : No\n\nText\nID                                       : 3\nFormat                                   : UTF-8\nCodec ID                                 : S_TEXT/UTF8\nCodec ID/Info                            : UTF-8 Plain Text\nLanguage                                 : English\nDefault                                  : No\nForced                                   : No\n\nMenu\n00:00:00.000                             : en:First Love\n00:02:31.151                             : en:I'm a Forensic Psychologist\n00:07:45.715                             : en:Naomi's Missing\n00:10:00.225                             : en:Megan\n00:11:13.756                             : en:The Research Triangle\n00:19:16.530                             : enr. Mctiernan\n00:23:37.875                             : en:This Guy's A Collector\n00:24:59.873                             : en:Casanova Declares Himself\n00:29:10.207                             : en:Not a Clue\n00:32:42.752                             : en:The Lair\n00:36:04.329                             : enr. Sachs\n00:38:06.367                             : en:Never Call Out\n00:40:59.957                             : en:The Odalisque\n00:43:34.320                             : en:Escape\n00:48:11.097                             : en:Kate Recovers\n00:53:24.827                             : en:Blame Me\n00:55:58.438                             : en:Hypnosis Session\n00:59:20.766                             : en:Take Me with You\n01:02:31.706                             : en:Rudolph\n01:07:51.651                             : en:Blending In\n01:11:04.635                             : en:Gone in the Night\n01:15:28.858                             : en:The Shrine\n01:18:48.891                             : enr. Sachs Revisited\n01:25:22.826                             : en:Closing In\n01:36:29.867                             : en:Saved\n01:39:23.791                             : en:Tell Me What Truth Is","torrent":{"xt":"urn:btih:b0b5bbb078bde6085b049c7f108ae23773c57647","amp;dn":"Kiss.the.Girls.1997.1080p.BluRay.x264.DTS-FGT","amp;tr":["udp%3A%2F%2Ftracker.openbittorrent.com%3A80","udp%3A%2F%2Fopen.demonii.com%3A1337","udp%3A%2F%2Ftracker.coppersurfer.tk%3A6969","udp%3A%2F%2Fexodus.desync.com%3A6969"],"infoHash":"b0b5bbb078bde6085b049c7f108ae23773c57647","infoHashBuffer":{"type":"Buffer","data":[176,181,187,176,120,189,230,8,91,4,156,127,16,138,226,55,115,197,118,71]},"announce":[],"urlList":[]}}